<svg xmlns="http://www.w3.org/2000/svg" xmlns:xlink="http://www.w3.org/1999/xlink" xmlns:lucid="lucid" width="1611" height="800"><g transform="translate(-77 -88)" lucid:page-tab-id="0_0"><path d="M1141 484h4.95c6.63 0 12 5.37 12 12v35.98c0 6.63 5.37 12 12 12h4.35" stroke="#333" fill="none"/><path d="M1121.82 474l20 10-20 10" stroke="#333" fill="#fff" fill-opacity="0"/><path d="M1121.82 484h20M1174.3 533.98v20M1194.3 543.98h-20" stroke="#333" fill="#fff"/><path d="M620.6 356h-5.93c-6.63 0-12 5.37-12 12v199.98c0 6.62-5.37 12-12 12h-6.52" stroke="#333" fill="none"/><path d="M620.6 346v20M640.6 356h-20" stroke="#333" fill="#fff"/><path d="M564.96 569.98l20 10-20 10" stroke="#333" fill="#fff" fill-opacity="0"/><path d="M564.96 579.98h20" stroke="#333" fill="#fff"/><path d="M641.1 340v155c0 2.76 2.23 5 5 5h470c2.76 0 5-2.24 5-5V340" fill="#fff"/><path d="M641.1 340v-35c0-2.76 2.23-5 5-5h470c2.76 0 5 2.24 5 5v35" fill="#5abaa7"/><path d="M641.1 305c0-2.76 2.23-5 5-5h470c2.76 0 5 2.24 5 5v190c0 2.76-2.24 5-5 5h-470c-2.77 0-5-2.24-5-5zM641.1 340h480M811.96 340v160" stroke="#19967d" fill="none"/><use xlink:href="#a" transform="matrix(1,0,0,1,651.0945834120721,300) translate(0 23.6)"/><use xlink:href="#b" transform="matrix(1,0,0,1,646.0945834120721,342.5) translate(0 17.1)"/><use xlink:href="#c" transform="matrix(1,0,0,1,816.9573742408597,342.5) translate(0 17.1)"/><use xlink:href="#d" transform="matrix(1,0,0,1,816.9573742408597,342.5) translate(23.95 17.1)"/><use xlink:href="#e" transform="matrix(1,0,0,1,816.9573742408597,342.5) translate(96.7 17.1)"/><use xlink:href="#f" transform="matrix(1,0,0,1,816.9573742408597,342.5) translate(133.35 17.1)"/><use xlink:href="#g" transform="matrix(1,0,0,1,646.0945834120721,374.5) translate(0 17.1)"/><use xlink:href="#h" transform="matrix(1,0,0,1,816.9573742408597,374.5) translate(0 17.1)"/><use xlink:href="#i" transform="matrix(1,0,0,1,646.0945834120721,406.5) translate(0 17.1)"/><use xlink:href="#j" transform="matrix(1,0,0,1,816.9573742408597,406.5) translate(0 17.1)"/><use xlink:href="#k" transform="matrix(1,0,0,1,646.0945834120721,438.5) translate(0 17.1)"/><use xlink:href="#j" transform="matrix(1,0,0,1,816.9573742408597,438.5) translate(0 17.1)"/><use xlink:href="#l" transform="matrix(1,0,0,1,646.0945834120721,470.5) translate(0 17.1)"/><use xlink:href="#m" transform="matrix(1,0,0,1,816.9573742408597,470.5) translate(0 17.1)"/><use xlink:href="#n" transform="matrix(1,0,0,1,816.9573742408597,470.5) translate(23.95 17.1)"/><use xlink:href="#o" transform="matrix(1,0,0,1,816.9573742408597,470.5) translate(95.75000000000001 17.1)"/><use xlink:href="#p" transform="matrix(1,0,0,1,816.9573742408597,470.5) translate(128.75 17.1)"/><path d="M1194.8 563.98v123c0 2.77 2.24 5 5 5h456.3c2.76 0 5-2.23 5-5v-123" fill="#fff"/><path d="M1194.8 563.98v-35c0-2.76 2.24-5 5-5h456.3c2.76 0 5 2.24 5 5v35" fill="#5abaa7"/><path d="M1194.8 528.98c0-2.76 2.24-5 5-5h456.3c2.76 0 5 2.24 5 5v158c0 2.77-2.24 5-5 5h-456.3c-2.76 0-5-2.23-5-5zM1194.8 563.98h466.3M1326.68 563.98v128" stroke="#19967d" fill="none"/><use xlink:href="#q" transform="matrix(1,0,0,1,1204.8014778413853,523.9846122069607) translate(0 23.6)"/><use xlink:href="#r" transform="matrix(1,0,0,1,1199.8014778413853,566.4846122069607) translate(0 17.1)"/><use xlink:href="#c" transform="matrix(1,0,0,1,1331.6751354867317,566.4846122069607) translate(0 17.1)"/><use xlink:href="#d" transform="matrix(1,0,0,1,1331.6751354867317,566.4846122069607) translate(23.95 17.1)"/><use xlink:href="#e" transform="matrix(1,0,0,1,1331.6751354867317,566.4846122069607) translate(96.7 17.1)"/><use xlink:href="#f" transform="matrix(1,0,0,1,1331.6751354867317,566.4846122069607) translate(133.35 17.1)"/><use xlink:href="#s" transform="matrix(1,0,0,1,1199.8014778413853,598.4846122069607) translate(0 17.1)"/><use xlink:href="#t" transform="matrix(1,0,0,1,1331.6751354867317,598.4846122069607) translate(0 17.1)"/><use xlink:href="#u" transform="matrix(1,0,0,1,1199.8014778413853,630.4846122069607) translate(0 17.1)"/><use xlink:href="#v" transform="matrix(1,0,0,1,1331.6751354867317,630.4846122069607) translate(0 17.1)"/><use xlink:href="#w" transform="matrix(1,0,0,1,1199.8014778413853,662.4846122069607) translate(0 17.1)"/><use xlink:href="#m" transform="matrix(1,0,0,1,1331.6751354867317,662.4846122069607) translate(0 17.1)"/><use xlink:href="#x" transform="matrix(1,0,0,1,1331.6751354867317,662.4846122069607) translate(23.95 17.1)"/><use xlink:href="#o" transform="matrix(1,0,0,1,1331.6751354867317,662.4846122069607) translate(95.75000000000001 17.1)"/><use xlink:href="#y" transform="matrix(1,0,0,1,1331.6751354867317,662.4846122069607) translate(128.75 17.1)"/><path d="M97.95 563.98v59c0 2.76 2.24 5 5 5h456.3c2.75 0 5-2.24 5-5v-59" fill="#fff"/><path d="M97.95 563.98v-35c0-2.76 2.24-5 5-5h456.3c2.75 0 5 2.24 5 5v35" fill="#5abaa7"/><path d="M97.95 528.98c0-2.76 2.24-5 5-5h456.3c2.75 0 5 2.24 5 5v94c0 2.76-2.25 5-5 5h-456.3c-2.76 0-5-2.24-5-5zM97.95 563.98h466.3M236.23 563.98v64" stroke="#19967d" fill="none"/><use xlink:href="#z" transform="matrix(1,0,0,1,107.94803062672872,523.9767983436004) translate(0 23.6)"/><use xlink:href="#b" transform="matrix(1,0,0,1,102.94803062672872,566.4767983436004) translate(0 17.1)"/><use xlink:href="#m" transform="matrix(1,0,0,1,241.22786520259018,566.4767983436004) translate(0 17.1)"/><use xlink:href="#n" transform="matrix(1,0,0,1,241.22786520259018,566.4767983436004) translate(23.95 17.1)"/><use xlink:href="#o" transform="matrix(1,0,0,1,241.22786520259018,566.4767983436004) translate(95.75000000000001 17.1)"/><use xlink:href="#A" transform="matrix(1,0,0,1,241.22786520259018,566.4767983436004) translate(128.75 17.1)"/><use xlink:href="#B" transform="matrix(1,0,0,1,102.94803062672872,598.4767983436004) translate(0 17.1)"/><use xlink:href="#m" transform="matrix(1,0,0,1,241.22786520259018,598.4767983436004) translate(0 17.1)"/><use xlink:href="#n" transform="matrix(1,0,0,1,241.22786520259018,598.4767983436004) translate(23.95 17.1)"/><use xlink:href="#o" transform="matrix(1,0,0,1,241.22786520259018,598.4767983436004) translate(95.75000000000001 17.1)"/><use xlink:href="#C" transform="matrix(1,0,0,1,241.22786520259018,598.4767983436004) translate(128.75 17.1)"/><path d="M1212 792v59c0 2.76 2.23 5 5 5h420c2.75 0 5-2.24 5-5v-59" fill="#fff"/><path d="M1212 792v-35c0-2.76 2.23-5 5-5h420c2.75 0 5 2.24 5 5v35" fill="#5abaa7"/><path d="M1212 757c0-2.76 2.23-5 5-5h420c2.75 0 5 2.24 5 5v94c0 2.76-2.25 5-5 5h-420c-2.77 0-5-2.24-5-5zM1212 792h430M1368.63 792v64" stroke="#19967d" fill="none"/><use xlink:href="#D" transform="matrix(1,0,0,1,1221.99064466553,752) translate(0 23.6)"/><use xlink:href="#E" transform="matrix(1,0,0,1,1216.99064466553,794.5) translate(0 17.1)"/><use xlink:href="#c" transform="matrix(1,0,0,1,1373.6340685397536,794.5) translate(0 17.1)"/><use xlink:href="#d" transform="matrix(1,0,0,1,1373.6340685397536,794.5) translate(23.95 17.1)"/><use xlink:href="#e" transform="matrix(1,0,0,1,1373.6340685397536,794.5) translate(96.7 17.1)"/><use xlink:href="#f" transform="matrix(1,0,0,1,1373.6340685397536,794.5) translate(133.35 17.1)"/><use xlink:href="#F" transform="matrix(1,0,0,1,1216.99064466553,826.5) translate(0 17.1)"/><use xlink:href="#t" transform="matrix(1,0,0,1,1373.6340685397536,826.5) translate(0 17.1)"/><path d="M1427.95 711.9v9.6c0 .28-.22.5-.48.5-.27 0-.48.2-.48.47v9.03" stroke="#333" fill="none"/><path d="M1437.95 692.7l-10 20-10-20" stroke="#333" fill="#fff" fill-opacity="0"/><path d="M1427.95 692.7v20M1437 731.5h-20M1427 751.5v-20" stroke="#333" fill="#fff"/><path d="M116.1 760v91c0 2.76 2.23 5 5 5h420c2.76 0 5-2.24 5-5v-91" fill="#fff"/><path d="M116.1 760v-35c0-2.76 2.23-5 5-5h420c2.76 0 5 2.24 5 5v35" fill="#5abaa7"/><path d="M116.1 725c0-2.76 2.23-5 5-5h420c2.76 0 5 2.24 5 5v126c0 2.76-2.24 5-5 5h-420c-2.77 0-5-2.24-5-5zM116.1 760h430M226.5 760v96" stroke="#19967d" fill="none"/><use xlink:href="#G" transform="matrix(1,0,0,1,126.0945834120721,720) translate(0 23.6)"/><use xlink:href="#B" transform="matrix(1,0,0,1,121.0945834120721,762.5) translate(0 17.1)"/><use xlink:href="#c" transform="matrix(1,0,0,1,231.50177449530656,762.5) translate(0 17.1)"/><use xlink:href="#d" transform="matrix(1,0,0,1,231.50177449530656,762.5) translate(23.95 17.1)"/><use xlink:href="#e" transform="matrix(1,0,0,1,231.50177449530656,762.5) translate(96.7 17.1)"/><use xlink:href="#f" transform="matrix(1,0,0,1,231.50177449530656,762.5) translate(133.35 17.1)"/><use xlink:href="#H" transform="matrix(1,0,0,1,121.0945834120721,794.5) translate(0 17.1)"/><use xlink:href="#I" transform="matrix(1,0,0,1,231.50177449530656,794.5) translate(0 17.1)"/><use xlink:href="#J" transform="matrix(1,0,0,1,121.0945834120721,826.5) translate(0 17.1)"/><use xlink:href="#v" transform="matrix(1,0,0,1,231.50177449530656,826.5) translate(0 17.1)"/><path d="M331.1 700.1v-51.62" stroke="#333" fill="none"/><path d="M321.1 719.28l10-20 10 20" stroke="#333" fill="#fff" fill-opacity="0"/><path d="M331.1 719.28v-20M321.1 648.48h20M331.1 628.48v20" stroke="#333" fill="#fff"/><path d="M631.1 664v187c0 2.76 2.23 5 5 5h490c2.76 0 5-2.24 5-5V664" fill="#fff"/><path d="M631.1 664v-35c0-2.76 2.23-5 5-5h490c2.76 0 5 2.24 5 5v35" fill="#ffc374"/><path d="M631.1 629c0-2.76 2.23-5 5-5h490c2.76 0 5 2.24 5 5v222c0 2.76-2.24 5-5 5h-490c-2.77 0-5-2.24-5-5zM631.1 664h500M792.65 664v192" stroke="#ef8d22" fill="none"/><use xlink:href="#K" transform="matrix(1,0,0,1,641.0945834120721,624) translate(0 23.6)"/><use xlink:href="#b" transform="matrix(1,0,0,1,636.0945834120721,666.5) translate(0 17.1)"/><use xlink:href="#c" transform="matrix(1,0,0,1,797.6518855659983,666.5) translate(0 17.1)"/><use xlink:href="#L" transform="matrix(1,0,0,1,797.6518855659983,666.5) translate(23.95 17.1)"/><use xlink:href="#M" transform="matrix(1,0,0,1,797.6518855659983,666.5) translate(95.75000000000001 17.1)"/><use xlink:href="#N" transform="matrix(1,0,0,1,797.6518855659983,666.5) translate(128.75 17.1)"/><use xlink:href="#O" transform="matrix(1,0,0,1,636.0945834120721,698.5) translate(0 17.1)"/><use xlink:href="#c" transform="matrix(1,0,0,1,797.6518855659983,698.5) translate(0 17.1)"/><use xlink:href="#d" transform="matrix(1,0,0,1,797.6518855659983,698.5) translate(23.95 17.1)"/><use xlink:href="#e" transform="matrix(1,0,0,1,797.6518855659983,698.5) translate(96.7 17.1)"/><use xlink:href="#f" transform="matrix(1,0,0,1,797.6518855659983,698.5) translate(133.35 17.1)"/><use xlink:href="#P" transform="matrix(1,0,0,1,636.0945834120721,730.5) translate(0 17.1)"/><use xlink:href="#Q" transform="matrix(1,0,0,1,797.6518855659983,730.5) translate(0 17.1)"/><use xlink:href="#R" transform="matrix(1,0,0,1,797.6518855659983,730.5) translate(24.95 17.1)"/><use xlink:href="#S" transform="matrix(1,0,0,1,797.6518855659983,730.5) translate(100.75000000000001 17.1)"/><use xlink:href="#T" transform="matrix(1,0,0,1,797.6518855659983,730.5) translate(145.70000000000002 17.1)"/><use xlink:href="#U" transform="matrix(1,0,0,1,636.0945834120721,762.5) translate(0 17.1)"/><use xlink:href="#V" transform="matrix(1,0,0,1,797.6518855659983,762.5) translate(0 17.1)"/><use xlink:href="#W" transform="matrix(1,0,0,1,797.6518855659983,762.5) translate(40.9 17.1)"/><use xlink:href="#X" transform="matrix(1,0,0,1,797.6518855659983,762.5) translate(116.70000000000002 17.1)"/><use xlink:href="#Y" transform="matrix(1,0,0,1,797.6518855659983,762.5) translate(161.65000000000003 17.1)"/><use xlink:href="#i" transform="matrix(1,0,0,1,636.0945834120721,794.5) translate(0 17.1)"/><use xlink:href="#j" transform="matrix(1,0,0,1,797.6518855659983,794.5) translate(0 17.1)"/><use xlink:href="#k" transform="matrix(1,0,0,1,636.0945834120721,826.5) translate(0 17.1)"/><use xlink:href="#j" transform="matrix(1,0,0,1,797.6518855659983,826.5) translate(0 17.1)"/><path d="M1194.8 160v59c0 2.76 2.24 5 5 5h456.3c2.76 0 5-2.24 5-5v-59" fill="#fff"/><path d="M1194.8 160v-35c0-2.76 2.24-5 5-5h456.3c2.76 0 5 2.24 5 5v35" fill="#a3d977"/><path d="M1194.8 125c0-2.76 2.24-5 5-5h456.3c2.76 0 5 2.24 5 5v94c0 2.76-2.24 5-5 5h-456.3c-2.76 0-5-2.24-5-5zM1194.8 160h466.3M1314.27 160v64" stroke="#7ab648" fill="none"/><use xlink:href="#Z" transform="matrix(1,0,0,1,1204.8014778413853,120) translate(0 23.6)"/><use xlink:href="#b" transform="matrix(1,0,0,1,1199.8014778413853,162.5) translate(0 17.1)"/><use xlink:href="#m" transform="matrix(1,0,0,1,1319.2711528302957,162.5) translate(0 17.1)"/><use xlink:href="#n" transform="matrix(1,0,0,1,1319.2711528302957,162.5) translate(23.95 17.1)"/><use xlink:href="#o" transform="matrix(1,0,0,1,1319.2711528302957,162.5) translate(95.75000000000001 17.1)"/><use xlink:href="#A" transform="matrix(1,0,0,1,1319.2711528302957,162.5) translate(128.75 17.1)"/><use xlink:href="#aa" transform="matrix(1,0,0,1,1199.8014778413853,194.5) translate(0 17.1)"/><use xlink:href="#m" transform="matrix(1,0,0,1,1319.2711528302957,194.5) translate(0 17.1)"/><use xlink:href="#n" transform="matrix(1,0,0,1,1319.2711528302957,194.5) translate(23.95 17.1)"/><use xlink:href="#o" transform="matrix(1,0,0,1,1319.2711528302957,194.5) translate(95.75000000000001 17.1)"/><use xlink:href="#ab" transform="matrix(1,0,0,1,1319.2711528302957,194.5) translate(128.75 17.1)"/><path d="M1212.95 340v59c0 2.76 2.24 5 5 5h420c2.76 0 5-2.24 5-5v-59" fill="#fff"/><path d="M1212.95 340v-35c0-2.76 2.24-5 5-5h420c2.76 0 5 2.24 5 5v35" fill="#a3d977"/><path d="M1212.95 305c0-2.76 2.24-5 5-5h420c2.76 0 5 2.24 5 5v94c0 2.76-2.24 5-5 5h-420c-2.76 0-5-2.24-5-5zM1212.95 340h430M1360 340v64" stroke="#7ab648" fill="none"/><use xlink:href="#ac" transform="matrix(1,0,0,1,1222.9480306267287,300) translate(0 23.6)"/><use xlink:href="#aa" transform="matrix(1,0,0,1,1217.9480306267287,342.5) translate(0 17.1)"/><use xlink:href="#c" transform="matrix(1,0,0,1,1365.0071670472737,342.5) translate(0 17.1)"/><use xlink:href="#d" transform="matrix(1,0,0,1,1365.0071670472737,342.5) translate(23.95 17.1)"/><use xlink:href="#e" transform="matrix(1,0,0,1,1365.0071670472737,342.5) translate(96.7 17.1)"/><use xlink:href="#f" transform="matrix(1,0,0,1,1365.0071670472737,342.5) translate(133.35 17.1)"/><use xlink:href="#ad" transform="matrix(1,0,0,1,1217.9480306267287,374.5) translate(0 17.1)"/><use xlink:href="#v" transform="matrix(1,0,0,1,1365.0071670472737,374.5) translate(0 17.1)"/><path d="M1427.95 243.9v35.6" stroke="#333" fill="none"/><path d="M1437.95 224.72l-10 20-10-20" stroke="#333" fill="#fff" fill-opacity="0"/><path d="M1427.95 224.72v20M1437.95 279.5h-20M1427.95 299.5v-20" stroke="#333" fill="#fff"/><path d="M97.95 160v59c0 2.76 2.24 5 5 5h456.3c2.75 0 5-2.24 5-5v-59" fill="#fff"/><path d="M97.95 160v-35c0-2.76 2.24-5 5-5h456.3c2.75 0 5 2.24 5 5v35" fill="#b391b5"/><path d="M97.95 125c0-2.76 2.24-5 5-5h456.3c2.75 0 5 2.24 5 5v94c0 2.76-2.25 5-5 5h-456.3c-2.76 0-5-2.24-5-5zM97.95 160h466.3M231.93 160v64" stroke="#834187" fill="none"/><g><use xlink:href="#ae" transform="matrix(1,0,0,1,107.94803062672872,120) translate(0 23.6)"/></g><g><use xlink:href="#b" transform="matrix(1,0,0,1,102.94803062672872,162.5) translate(0 17.1)"/></g><g><use xlink:href="#m" transform="matrix(1,0,0,1,236.933256133045,162.5) translate(0 17.1)"/><use xlink:href="#n" transform="matrix(1,0,0,1,236.933256133045,162.5) translate(23.95 17.1)"/><use xlink:href="#o" transform="matrix(1,0,0,1,236.933256133045,162.5) translate(95.75000000000001 17.1)"/><use xlink:href="#A" transform="matrix(1,0,0,1,236.933256133045,162.5) translate(128.75 17.1)"/></g><g><use xlink:href="#af" transform="matrix(1,0,0,1,102.94803062672872,194.5) translate(0 17.1)"/></g><g><use xlink:href="#m" transform="matrix(1,0,0,1,236.933256133045,194.5) translate(0 17.1)"/><use xlink:href="#n" transform="matrix(1,0,0,1,236.933256133045,194.5) translate(23.95 17.1)"/><use xlink:href="#o" transform="matrix(1,0,0,1,236.933256133045,194.5) translate(95.75000000000001 17.1)"/><use xlink:href="#ag" transform="matrix(1,0,0,1,236.933256133045,194.5) translate(128.75 17.1)"/></g><path d="M620.6 320h-5.93c-6.63 0-12-5.37-12-12V188c0-6.63-5.37-12-12-12h-6.52" stroke="#333" fill="none"/><path d="M620.6 310v20M640.6 320h-20" stroke="#333" fill="#fff"/><path d="M564.96 166l20 10-20 10" stroke="#333" fill="#fff" fill-opacity="0"/><path d="M564.96 176h20" stroke="#333" fill="#fff"/><path d="M116.1 340v59c0 2.76 2.23 5 5 5h420c2.76 0 5-2.24 5-5v-59" fill="#fff"/><path d="M116.1 340v-35c0-2.76 2.23-5 5-5h420c2.76 0 5 2.24 5 5v35" fill="#b391b5"/><path d="M116.1 305c0-2.76 2.23-5 5-5h420c2.76 0 5 2.24 5 5v94c0 2.76-2.24 5-5 5h-420c-2.77 0-5-2.24-5-5zM116.1 340h430M239.37 340v64" stroke="#834187" fill="none"/><g><use xlink:href="#ah" transform="matrix(1,0,0,1,126.0945834120721,300) translate(0 23.6)"/></g><g><use xlink:href="#af" transform="matrix(1,0,0,1,121.0945834120721,342.5) translate(0 17.1)"/></g><g><use xlink:href="#c" transform="matrix(1,0,0,1,244.37243072121657,342.5) translate(0 17.1)"/><use xlink:href="#d" transform="matrix(1,0,0,1,244.37243072121657,342.5) translate(23.95 17.1)"/><use xlink:href="#e" transform="matrix(1,0,0,1,244.37243072121657,342.5) translate(96.7 17.1)"/><use xlink:href="#f" transform="matrix(1,0,0,1,244.37243072121657,342.5) translate(133.35 17.1)"/></g><g><use xlink:href="#ai" transform="matrix(1,0,0,1,121.0945834120721,374.5) translate(0 17.1)"/></g><g><use xlink:href="#v" transform="matrix(1,0,0,1,244.37243072121657,374.5) translate(0 17.1)"/></g><path d="M331.1 244.5v35.6" stroke="#333" fill="none"/><path d="M321.1 244.5h20M331.1 224.5v20" stroke="#333" fill="#fff"/><path d="M321.1 299.28l10-20 10 20" stroke="#333" fill="#fff" fill-opacity="0"/><path d="M331.1 299.28v-20" stroke="#333" fill="#fff"/><path d="M881.1 520.5v83" stroke="#333" fill="none"/><path d="M871.1 520.5h20M881.1 500.5v20M891.1 603.5h-20M881.1 623.5v-20" stroke="#333" fill="#fff"/><path d="M1141.6 320h4.35c6.63 0 12-5.37 12-12V188c0-6.63 5.37-12 12-12h4.94" stroke="#333" fill="none"/><path d="M1141.6 330v-20M1121.6 320h20" stroke="#333" fill="#fff"/><path d="M1194.08 186l-20-10 20-10" stroke="#333" fill="#fff" fill-opacity="0"/><path d="M1194.08 176h-20" stroke="#333" fill="#fff"/><defs><path fill="#333" d="M143 4C61 4 22-44 18-125c-5-107 100-154 193-111 17 8 29 25 37 43l-32 9c-13-25-37-40-76-40-61 0-88 39-88 99 0 61 29 100 91 101 35 0 62-11 79-27v-45h-74v-28h105v86C228-13 192 4 143 4" id="aj"/><path fill="#333" d="M100-194c63 0 86 42 84 106H49c0 40 14 67 53 68 26 1 43-12 49-29l28 8c-11 28-37 45-77 45C44 4 14-33 15-96c1-61 26-98 85-98zm52 81c6-60-76-77-97-28-3 7-6 17-6 28h103" id="ak"/><path fill="#333" d="M117-194c89-4 53 116 60 194h-32v-121c0-31-8-49-39-48C34-167 62-67 57 0H25l-1-190h30c1 10-1 24 2 32 11-22 29-35 61-36" id="al"/><path fill="#333" d="M115-194c53 0 69 39 70 98 0 66-23 100-70 100C84 3 66-7 56-30L54 0H23l1-261h32v101c10-23 28-34 59-34zm-8 174c40 0 45-34 45-75 0-40-5-75-45-74-42 0-51 32-51 76 0 43 10 73 51 73" id="am"/><path fill="#333" d="M141-36C126-15 110 5 73 4 37 3 15-17 15-53c-1-64 63-63 125-63 3-35-9-54-41-54-24 1-41 7-42 31l-33-3c5-37 33-52 76-52 45 0 72 20 72 64v82c-1 20 7 32 28 27v20c-31 9-61-2-59-35zM48-53c0 20 12 33 32 33 41-3 63-29 60-74-43 2-92-5-92 41" id="an"/><path fill="#333" d="M143 0L79-87 56-68V0H24v-261h32v163l83-92h37l-77 82L181 0h-38" id="ao"/><path fill="#333" d="M135-143c-3-34-86-38-87 0 15 53 115 12 119 90S17 21 10-45l28-5c4 36 97 45 98 0-10-56-113-15-118-90-4-57 82-63 122-42 12 7 21 19 24 35" id="ap"/><g id="a"><use transform="matrix(0.05,0,0,0.05,0,0)" xlink:href="#aj"/><use transform="matrix(0.05,0,0,0.05,14,0)" xlink:href="#ak"/><use transform="matrix(0.05,0,0,0.05,24,0)" xlink:href="#al"/><use transform="matrix(0.05,0,0,0.05,34,0)" xlink:href="#am"/><use transform="matrix(0.05,0,0,0.05,44,0)" xlink:href="#an"/><use transform="matrix(0.05,0,0,0.05,54,0)" xlink:href="#al"/><use transform="matrix(0.05,0,0,0.05,64,0)" xlink:href="#ao"/><use transform="matrix(0.05,0,0,0.05,73,0)" xlink:href="#ap"/></g><path fill="#333" d="M177-190C167-65 218 103 67 71c-23-6-38-20-44-43l32-5c15 47 100 32 89-28v-30C133-14 115 1 83 1 29 1 15-40 15-95c0-56 16-97 71-98 29-1 48 16 59 35 1-10 0-23 2-32h30zM94-22c36 0 50-32 50-73 0-42-14-75-50-75-39 0-46 34-46 75s6 73 46 73" id="aq"/><path fill="#333" d="M-5 72V49h209v23H-5" id="ar"/><path fill="#333" d="M24-231v-30h32v30H24zM24 0v-190h32V0H24" id="as"/><path fill="#333" d="M85-194c31 0 48 13 60 33l-1-100h32l1 261h-30c-2-10 0-23-3-31C134-8 116 4 85 4 32 4 16-35 15-94c0-66 23-100 70-100zm9 24c-40 0-46 34-46 75 0 40 6 74 45 74 42 0 51-32 51-76 0-42-9-74-50-73" id="at"/><g id="b"><use transform="matrix(0.05,0,0,0.05,0,0)" xlink:href="#aq"/><use transform="matrix(0.05,0,0,0.05,10,0)" xlink:href="#ak"/><use transform="matrix(0.05,0,0,0.05,20,0)" xlink:href="#al"/><use transform="matrix(0.05,0,0,0.05,30,0)" xlink:href="#am"/><use transform="matrix(0.05,0,0,0.05,40,0)" xlink:href="#an"/><use transform="matrix(0.05,0,0,0.05,50,0)" xlink:href="#al"/><use transform="matrix(0.05,0,0,0.05,60,0)" xlink:href="#ao"/><use transform="matrix(0.05,0,0,0.05,69,0)" xlink:href="#ar"/><use transform="matrix(0.05,0,0,0.05,79,0)" xlink:href="#as"/><use transform="matrix(0.05,0,0,0.05,82.95,0)" xlink:href="#at"/></g><path fill="#333" d="M59-47c-2 24 18 29 38 22v24C64 9 27 4 27-40v-127H5v-23h24l9-43h21v43h35v23H59v120" id="au"/><g id="c"><use transform="matrix(0.05,0,0,0.05,0,0)" xlink:href="#as"/><use transform="matrix(0.05,0,0,0.05,3.95,0)" xlink:href="#al"/><use transform="matrix(0.05,0,0,0.05,13.949999999999998,0)" xlink:href="#au"/></g><path fill="#333" d="M87 75C49 33 22-17 22-94c0-76 28-126 65-167h31c-38 41-64 92-64 168S80 34 118 75H87" id="av"/><path fill="#333" d="M30-248c87 1 191-15 191 75 0 78-77 80-158 76V0H30v-248zm33 125c57 0 124 11 124-50 0-59-68-47-124-48v98" id="aw"/><path fill="#333" d="M114-163C36-179 61-72 57 0H25l-1-190h30c1 12-1 29 2 39 6-27 23-49 58-41v29" id="ax"/><path fill="#333" d="M210-169c-67 3-38 105-44 169h-31v-121c0-29-5-50-35-48C34-165 62-65 56 0H25l-1-190h30c1 10-1 24 2 32 10-44 99-50 107 0 11-21 27-35 58-36 85-2 47 119 55 194h-31v-121c0-29-5-49-35-48" id="ay"/><path fill="#333" d="M179-190L93 31C79 59 56 82 12 73V49c39 6 53-20 64-50L1-190h34L92-34l54-156h33" id="az"/><g id="d"><use transform="matrix(0.05,0,0,0.05,0,0)" xlink:href="#av"/><use transform="matrix(0.05,0,0,0.05,5.95,0)" xlink:href="#aw"/><use transform="matrix(0.05,0,0,0.05,17.95,0)" xlink:href="#ax"/><use transform="matrix(0.05,0,0,0.05,23.9,0)" xlink:href="#as"/><use transform="matrix(0.05,0,0,0.05,27.849999999999994,0)" xlink:href="#ay"/><use transform="matrix(0.05,0,0,0.05,42.8,0)" xlink:href="#an"/><use transform="matrix(0.05,0,0,0.05,52.79999999999999,0)" xlink:href="#ax"/><use transform="matrix(0.05,0,0,0.05,58.75,0)" xlink:href="#az"/></g><path fill="#333" d="M68-38c1 34 0 65-14 84H32c9-13 17-26 17-46H33v-38h35" id="aA"/><g id="e"><use transform="matrix(0.05,0,0,0.05,0,0)" xlink:href="#ao"/><use transform="matrix(0.05,0,0,0.05,9,0)" xlink:href="#ak"/><use transform="matrix(0.05,0,0,0.05,19,0)" xlink:href="#az"/><use transform="matrix(0.05,0,0,0.05,26.649999999999995,0)" xlink:href="#aA"/></g><path fill="#333" d="M84 4C-5 8 30-112 23-190h32v120c0 31 7 50 39 49 72-2 45-101 50-169h31l1 190h-30c-1-10 1-25-2-33-11 22-28 36-60 37" id="aB"/><path fill="#333" d="M100-194c62-1 85 37 85 99 1 63-27 99-86 99S16-35 15-95c0-66 28-99 85-99zM99-20c44 1 53-31 53-75 0-43-8-75-51-75s-53 32-53 75 10 74 51 75" id="aC"/><path fill="#333" d="M96-169c-40 0-48 33-48 73s9 75 48 75c24 0 41-14 43-38l32 2c-6 37-31 61-74 61-59 0-76-41-82-99-10-93 101-131 147-64 4 7 5 14 7 22l-32 3c-4-21-16-35-41-35" id="aD"/><path fill="#333" d="M33-261c38 41 65 92 65 168S71 34 33 75H2C39 34 66-17 66-93S39-220 2-261h31" id="aE"/><g id="f"><use transform="matrix(0.05,0,0,0.05,0,0)" xlink:href="#an"/><use transform="matrix(0.05,0,0,0.05,10,0)" xlink:href="#aB"/><use transform="matrix(0.05,0,0,0.05,20,0)" xlink:href="#au"/><use transform="matrix(0.05,0,0,0.05,25,0)" xlink:href="#aC"/><use transform="matrix(0.05,0,0,0.05,35,0)" xlink:href="#as"/><use transform="matrix(0.05,0,0,0.05,38.95,0)" xlink:href="#al"/><use transform="matrix(0.05,0,0,0.05,48.95,0)" xlink:href="#aD"/><use transform="matrix(0.05,0,0,0.05,57.95,0)" xlink:href="#ax"/><use transform="matrix(0.05,0,0,0.05,63.900000000000006,0)" xlink:href="#ak"/><use transform="matrix(0.05,0,0,0.05,73.9,0)" xlink:href="#ay"/><use transform="matrix(0.05,0,0,0.05,88.85000000000001,0)" xlink:href="#ak"/><use transform="matrix(0.05,0,0,0.05,98.85000000000001,0)" xlink:href="#al"/><use transform="matrix(0.05,0,0,0.05,108.85000000000001,0)" xlink:href="#au"/><use transform="matrix(0.05,0,0,0.05,113.85000000000001,0)" xlink:href="#aE"/></g><g id="g"><use transform="matrix(0.05,0,0,0.05,0,0)" xlink:href="#aq"/><use transform="matrix(0.05,0,0,0.05,10,0)" xlink:href="#ak"/><use transform="matrix(0.05,0,0,0.05,20,0)" xlink:href="#al"/><use transform="matrix(0.05,0,0,0.05,30,0)" xlink:href="#am"/><use transform="matrix(0.05,0,0,0.05,40,0)" xlink:href="#an"/><use transform="matrix(0.05,0,0,0.05,50,0)" xlink:href="#al"/><use transform="matrix(0.05,0,0,0.05,60,0)" xlink:href="#ao"/><use transform="matrix(0.05,0,0,0.05,69,0)" xlink:href="#ar"/><use transform="matrix(0.05,0,0,0.05,79,0)" xlink:href="#an"/><use transform="matrix(0.05,0,0,0.05,89,0)" xlink:href="#aD"/><use transform="matrix(0.05,0,0,0.05,98,0)" xlink:href="#aD"/><use transform="matrix(0.05,0,0,0.05,107,0)" xlink:href="#ak"/><use transform="matrix(0.05,0,0,0.05,117,0)" xlink:href="#ap"/><use transform="matrix(0.05,0,0,0.05,126,0)" xlink:href="#ap"/><use transform="matrix(0.05,0,0,0.05,135,0)" xlink:href="#as"/><use transform="matrix(0.05,0,0,0.05,138.95,0)" xlink:href="#aC"/><use transform="matrix(0.05,0,0,0.05,148.95,0)" xlink:href="#al"/></g><path fill="#333" d="M185-189c-5-48-123-54-124 2 14 75 158 14 163 119 3 78-121 87-175 55-17-10-28-26-33-46l33-7c5 56 141 63 141-1 0-78-155-14-162-118-5-82 145-84 179-34 5 7 8 16 11 25" id="aF"/><g id="h"><use transform="matrix(0.05,0,0,0.05,0,0)" xlink:href="#aF"/><use transform="matrix(0.05,0,0,0.05,12,0)" xlink:href="#au"/><use transform="matrix(0.05,0,0,0.05,17,0)" xlink:href="#ax"/></g><path fill="#333" d="M145-31C134-9 116 4 85 4 32 4 16-35 15-94c0-59 17-99 70-100 32-1 48 14 60 33 0-11-1-24 2-32h30l-1 268h-32zM93-21c41 0 51-33 51-76s-8-73-50-73c-40 0-46 35-46 75s5 74 45 74" id="aG"/><g id="i"><use transform="matrix(0.05,0,0,0.05,0,0)" xlink:href="#ap"/><use transform="matrix(0.05,0,0,0.05,9,0)" xlink:href="#ak"/><use transform="matrix(0.05,0,0,0.05,19,0)" xlink:href="#aG"/><use transform="matrix(0.05,0,0,0.05,29,0)" xlink:href="#aB"/><use transform="matrix(0.05,0,0,0.05,39,0)" xlink:href="#ak"/><use transform="matrix(0.05,0,0,0.05,49,0)" xlink:href="#al"/><use transform="matrix(0.05,0,0,0.05,59,0)" xlink:href="#aD"/><use transform="matrix(0.05,0,0,0.05,68,0)" xlink:href="#ak"/></g><g id="j"><use transform="matrix(0.05,0,0,0.05,0,0)" xlink:href="#ax"/><use transform="matrix(0.05,0,0,0.05,5.95,0)" xlink:href="#ak"/><use transform="matrix(0.05,0,0,0.05,15.949999999999998,0)" xlink:href="#ap"/><use transform="matrix(0.05,0,0,0.05,24.95,0)" xlink:href="#au"/><use transform="matrix(0.05,0,0,0.05,29.950000000000003,0)" xlink:href="#ax"/></g><path fill="#333" d="M115-194c55 1 70 41 70 98S169 2 115 4C84 4 66-9 55-30l1 105H24l-1-265h31l2 30c10-21 28-34 59-34zm-8 174c40 0 45-34 45-75s-6-73-45-74c-42 0-51 32-51 76 0 43 10 73 51 73" id="aH"/><g id="k"><use transform="matrix(0.05,0,0,0.05,0,0)" xlink:href="#ap"/><use transform="matrix(0.05,0,0,0.05,9,0)" xlink:href="#ak"/><use transform="matrix(0.05,0,0,0.05,19,0)" xlink:href="#aG"/><use transform="matrix(0.05,0,0,0.05,29,0)" xlink:href="#ar"/><use transform="matrix(0.05,0,0,0.05,39,0)" xlink:href="#aB"/><use transform="matrix(0.05,0,0,0.05,49,0)" xlink:href="#aH"/><use transform="matrix(0.05,0,0,0.05,59,0)" xlink:href="#at"/><use transform="matrix(0.05,0,0,0.05,69,0)" xlink:href="#an"/><use transform="matrix(0.05,0,0,0.05,79,0)" xlink:href="#au"/><use transform="matrix(0.05,0,0,0.05,84,0)" xlink:href="#ak"/><use transform="matrix(0.05,0,0,0.05,94,0)" xlink:href="#ar"/><use transform="matrix(0.05,0,0,0.05,104,0)" xlink:href="#at"/><use transform="matrix(0.05,0,0,0.05,114,0)" xlink:href="#an"/><use transform="matrix(0.05,0,0,0.05,124,0)" xlink:href="#au"/><use transform="matrix(0.05,0,0,0.05,129,0)" xlink:href="#ak"/></g><path fill="#333" d="M141 0L90-78 38 0H4l68-98-65-92h35l48 74 47-74h35l-64 92 68 98h-35" id="aI"/><g id="l"><use transform="matrix(0.05,0,0,0.05,0,0)" xlink:href="#au"/><use transform="matrix(0.05,0,0,0.05,5,0)" xlink:href="#an"/><use transform="matrix(0.05,0,0,0.05,15,0)" xlink:href="#aI"/><use transform="matrix(0.05,0,0,0.05,24,0)" xlink:href="#aC"/><use transform="matrix(0.05,0,0,0.05,34,0)" xlink:href="#al"/><use transform="matrix(0.05,0,0,0.05,44,0)" xlink:href="#aC"/><use transform="matrix(0.05,0,0,0.05,54,0)" xlink:href="#ay"/><use transform="matrix(0.05,0,0,0.05,68.95,0)" xlink:href="#az"/><use transform="matrix(0.05,0,0,0.05,77.95,0)" xlink:href="#ar"/><use transform="matrix(0.05,0,0,0.05,87.95,0)" xlink:href="#as"/><use transform="matrix(0.05,0,0,0.05,91.9,0)" xlink:href="#at"/></g><g id="m"><use transform="matrix(0.05,0,0,0.05,0,0)" xlink:href="#as"/><use transform="matrix(0.05,0,0,0.05,3.95,0)" xlink:href="#al"/><use transform="matrix(0.05,0,0,0.05,13.949999999999998,0)" xlink:href="#au"/></g><path fill="#333" d="M63-220v92h138v28H63V0H30v-248h175v28H63" id="aJ"/><g id="n"><use transform="matrix(0.05,0,0,0.05,0,0)" xlink:href="#av"/><use transform="matrix(0.05,0,0,0.05,5.95,0)" xlink:href="#aJ"/><use transform="matrix(0.05,0,0,0.05,16.900000000000002,0)" xlink:href="#aC"/><use transform="matrix(0.05,0,0,0.05,26.900000000000002,0)" xlink:href="#ax"/><use transform="matrix(0.05,0,0,0.05,32.85,0)" xlink:href="#as"/><use transform="matrix(0.05,0,0,0.05,36.800000000000004,0)" xlink:href="#ak"/><use transform="matrix(0.05,0,0,0.05,46.800000000000004,0)" xlink:href="#aq"/><use transform="matrix(0.05,0,0,0.05,56.800000000000004,0)" xlink:href="#al"/></g><g id="o"><use transform="matrix(0.05,0,0,0.05,0,0)" xlink:href="#ao"/><use transform="matrix(0.05,0,0,0.05,9,0)" xlink:href="#ak"/><use transform="matrix(0.05,0,0,0.05,19,0)" xlink:href="#az"/></g><path fill="#333" d="M127-220V0H93v-220H8v-28h204v28h-85" id="aK"/><path fill="#333" d="M33 0v-38h34V0H33" id="aL"/><g id="p"><use transform="matrix(0.05,0,0,0.05,0,0)" xlink:href="#aK"/><use transform="matrix(0.05,0,0,0.05,8.950000000000001,0)" xlink:href="#an"/><use transform="matrix(0.05,0,0,0.05,18.950000000000003,0)" xlink:href="#aI"/><use transform="matrix(0.05,0,0,0.05,27.950000000000003,0)" xlink:href="#ap"/><use transform="matrix(0.05,0,0,0.05,36.95,0)" xlink:href="#aL"/><use transform="matrix(0.05,0,0,0.05,41.95,0)" xlink:href="#au"/><use transform="matrix(0.05,0,0,0.05,46.95,0)" xlink:href="#an"/><use transform="matrix(0.05,0,0,0.05,56.95,0)" xlink:href="#aI"/><use transform="matrix(0.05,0,0,0.05,65.95,0)" xlink:href="#aC"/><use transform="matrix(0.05,0,0,0.05,75.95,0)" xlink:href="#al"/><use transform="matrix(0.05,0,0,0.05,85.95,0)" xlink:href="#aC"/><use transform="matrix(0.05,0,0,0.05,95.95,0)" xlink:href="#ay"/><use transform="matrix(0.05,0,0,0.05,110.9,0)" xlink:href="#az"/><use transform="matrix(0.05,0,0,0.05,119.9,0)" xlink:href="#ar"/><use transform="matrix(0.05,0,0,0.05,129.9,0)" xlink:href="#as"/><use transform="matrix(0.05,0,0,0.05,133.85,0)" xlink:href="#at"/><use transform="matrix(0.05,0,0,0.05,143.85,0)" xlink:href="#aE"/></g><g id="q"><use transform="matrix(0.05,0,0,0.05,0,0)" xlink:href="#aK"/><use transform="matrix(0.05,0,0,0.05,8.950000000000001,0)" xlink:href="#an"/><use transform="matrix(0.05,0,0,0.05,18.950000000000003,0)" xlink:href="#aI"/><use transform="matrix(0.05,0,0,0.05,27.950000000000003,0)" xlink:href="#ap"/></g><g id="r"><use transform="matrix(0.05,0,0,0.05,0,0)" xlink:href="#au"/><use transform="matrix(0.05,0,0,0.05,5,0)" xlink:href="#an"/><use transform="matrix(0.05,0,0,0.05,15,0)" xlink:href="#aI"/><use transform="matrix(0.05,0,0,0.05,24,0)" xlink:href="#aC"/><use transform="matrix(0.05,0,0,0.05,34,0)" xlink:href="#al"/><use transform="matrix(0.05,0,0,0.05,44,0)" xlink:href="#aC"/><use transform="matrix(0.05,0,0,0.05,54,0)" xlink:href="#ay"/><use transform="matrix(0.05,0,0,0.05,68.95,0)" xlink:href="#az"/><use transform="matrix(0.05,0,0,0.05,77.95,0)" xlink:href="#ar"/><use transform="matrix(0.05,0,0,0.05,87.95,0)" xlink:href="#as"/><use transform="matrix(0.05,0,0,0.05,91.9,0)" xlink:href="#at"/></g><g id="s"><use transform="matrix(0.05,0,0,0.05,0,0)" xlink:href="#aq"/><use transform="matrix(0.05,0,0,0.05,10,0)" xlink:href="#ak"/><use transform="matrix(0.05,0,0,0.05,20,0)" xlink:href="#al"/><use transform="matrix(0.05,0,0,0.05,30,0)" xlink:href="#aB"/><use transform="matrix(0.05,0,0,0.05,40,0)" xlink:href="#ap"/></g><g id="t"><use transform="matrix(0.05,0,0,0.05,0,0)" xlink:href="#ap"/><use transform="matrix(0.05,0,0,0.05,9,0)" xlink:href="#au"/><use transform="matrix(0.05,0,0,0.05,14,0)" xlink:href="#ax"/></g><g id="u"><use transform="matrix(0.05,0,0,0.05,0,0)" xlink:href="#ap"/><use transform="matrix(0.05,0,0,0.05,9,0)" xlink:href="#aH"/><use transform="matrix(0.05,0,0,0.05,19,0)" xlink:href="#ak"/><use transform="matrix(0.05,0,0,0.05,29,0)" xlink:href="#aD"/><use transform="matrix(0.05,0,0,0.05,38,0)" xlink:href="#as"/><use transform="matrix(0.05,0,0,0.05,41.95,0)" xlink:href="#ak"/><use transform="matrix(0.05,0,0,0.05,51.95,0)" xlink:href="#ap"/></g><g id="v"><use transform="matrix(0.05,0,0,0.05,0,0)" xlink:href="#ap"/><use transform="matrix(0.05,0,0,0.05,9,0)" xlink:href="#au"/><use transform="matrix(0.05,0,0,0.05,14,0)" xlink:href="#ax"/></g><g id="w"><use transform="matrix(0.05,0,0,0.05,0,0)" xlink:href="#ao"/><use transform="matrix(0.05,0,0,0.05,9,0)" xlink:href="#as"/><use transform="matrix(0.05,0,0,0.05,12.949999999999998,0)" xlink:href="#al"/><use transform="matrix(0.05,0,0,0.05,22.95,0)" xlink:href="#aq"/><use transform="matrix(0.05,0,0,0.05,32.95,0)" xlink:href="#at"/><use transform="matrix(0.05,0,0,0.05,42.95,0)" xlink:href="#aC"/><use transform="matrix(0.05,0,0,0.05,52.95,0)" xlink:href="#ay"/><use transform="matrix(0.05,0,0,0.05,67.9,0)" xlink:href="#ar"/><use transform="matrix(0.05,0,0,0.05,77.9,0)" xlink:href="#as"/><use transform="matrix(0.05,0,0,0.05,81.85000000000001,0)" xlink:href="#at"/></g><g id="x"><use transform="matrix(0.05,0,0,0.05,0,0)" xlink:href="#av"/><use transform="matrix(0.05,0,0,0.05,5.95,0)" xlink:href="#aJ"/><use transform="matrix(0.05,0,0,0.05,16.900000000000002,0)" xlink:href="#aC"/><use transform="matrix(0.05,0,0,0.05,26.900000000000002,0)" xlink:href="#ax"/><use transform="matrix(0.05,0,0,0.05,32.85,0)" xlink:href="#ak"/><use transform="matrix(0.05,0,0,0.05,42.85,0)" xlink:href="#as"/><use transform="matrix(0.05,0,0,0.05,46.800000000000004,0)" xlink:href="#aq"/><use transform="matrix(0.05,0,0,0.05,56.800000000000004,0)" xlink:href="#al"/></g><path fill="#333" d="M194 0L95-120 63-95V0H30v-248h33v124l119-124h40L117-140 236 0h-42" id="aM"/><g id="y"><use transform="matrix(0.05,0,0,0.05,0,0)" xlink:href="#aM"/><use transform="matrix(0.05,0,0,0.05,12,0)" xlink:href="#as"/><use transform="matrix(0.05,0,0,0.05,15.949999999999998,0)" xlink:href="#al"/><use transform="matrix(0.05,0,0,0.05,25.950000000000003,0)" xlink:href="#aq"/><use transform="matrix(0.05,0,0,0.05,35.95,0)" xlink:href="#at"/><use transform="matrix(0.05,0,0,0.05,45.95,0)" xlink:href="#aC"/><use transform="matrix(0.05,0,0,0.05,55.95,0)" xlink:href="#ay"/><use transform="matrix(0.05,0,0,0.05,70.9,0)" xlink:href="#ap"/><use transform="matrix(0.05,0,0,0.05,79.9,0)" xlink:href="#aL"/><use transform="matrix(0.05,0,0,0.05,84.9,0)" xlink:href="#ao"/><use transform="matrix(0.05,0,0,0.05,93.9,0)" xlink:href="#as"/><use transform="matrix(0.05,0,0,0.05,97.85000000000001,0)" xlink:href="#al"/><use transform="matrix(0.05,0,0,0.05,107.85000000000001,0)" xlink:href="#aq"/><use transform="matrix(0.05,0,0,0.05,117.85000000000001,0)" xlink:href="#at"/><use transform="matrix(0.05,0,0,0.05,127.85000000000001,0)" xlink:href="#aC"/><use transform="matrix(0.05,0,0,0.05,137.85000000000002,0)" xlink:href="#ay"/><use transform="matrix(0.05,0,0,0.05,152.8,0)" xlink:href="#ar"/><use transform="matrix(0.05,0,0,0.05,162.8,0)" xlink:href="#as"/><use transform="matrix(0.05,0,0,0.05,166.75,0)" xlink:href="#at"/><use transform="matrix(0.05,0,0,0.05,176.75,0)" xlink:href="#aE"/></g><path fill="#333" d="M212-179c-10-28-35-45-73-45-59 0-87 40-87 99 0 60 29 101 89 101 43 0 62-24 78-52l27 14C228-24 195 4 139 4 59 4 22-46 18-125c-6-104 99-153 187-111 19 9 31 26 39 46" id="aN"/><path fill="#333" d="M9 0v-24l116-142H16v-24h144v24L44-24h123V0H9" id="aO"/><path fill="#333" d="M24 0v-261h32V0H24" id="aP"/><g id="z"><use transform="matrix(0.05,0,0,0.05,0,0)" xlink:href="#aj"/><use transform="matrix(0.05,0,0,0.05,14,0)" xlink:href="#ak"/><use transform="matrix(0.05,0,0,0.05,24,0)" xlink:href="#al"/><use transform="matrix(0.05,0,0,0.05,34,0)" xlink:href="#am"/><use transform="matrix(0.05,0,0,0.05,44,0)" xlink:href="#an"/><use transform="matrix(0.05,0,0,0.05,54,0)" xlink:href="#al"/><use transform="matrix(0.05,0,0,0.05,64,0)" xlink:href="#ao"/><use transform="matrix(0.05,0,0,0.05,73,0)" xlink:href="#ap"/><use transform="matrix(0.05,0,0,0.05,82,0)" xlink:href="#ar"/><use transform="matrix(0.05,0,0,0.05,92,0)" xlink:href="#aN"/><use transform="matrix(0.05,0,0,0.05,104.95,0)" xlink:href="#an"/><use transform="matrix(0.05,0,0,0.05,114.95,0)" xlink:href="#aO"/><use transform="matrix(0.05,0,0,0.05,123.95,0)" xlink:href="#az"/><use transform="matrix(0.05,0,0,0.05,132.95,0)" xlink:href="#aJ"/><use transform="matrix(0.05,0,0,0.05,143.89999999999998,0)" xlink:href="#an"/><use transform="matrix(0.05,0,0,0.05,153.89999999999998,0)" xlink:href="#ay"/><use transform="matrix(0.05,0,0,0.05,168.84999999999997,0)" xlink:href="#as"/><use transform="matrix(0.05,0,0,0.05,172.79999999999995,0)" xlink:href="#aP"/><use transform="matrix(0.05,0,0,0.05,176.74999999999994,0)" xlink:href="#as"/><use transform="matrix(0.05,0,0,0.05,180.69999999999993,0)" xlink:href="#ak"/><use transform="matrix(0.05,0,0,0.05,190.69999999999993,0)" xlink:href="#ap"/></g><g id="A"><use transform="matrix(0.05,0,0,0.05,0,0)" xlink:href="#aj"/><use transform="matrix(0.05,0,0,0.05,14,0)" xlink:href="#ak"/><use transform="matrix(0.05,0,0,0.05,24,0)" xlink:href="#al"/><use transform="matrix(0.05,0,0,0.05,34,0)" xlink:href="#am"/><use transform="matrix(0.05,0,0,0.05,44,0)" xlink:href="#an"/><use transform="matrix(0.05,0,0,0.05,54,0)" xlink:href="#al"/><use transform="matrix(0.05,0,0,0.05,64,0)" xlink:href="#ao"/><use transform="matrix(0.05,0,0,0.05,73,0)" xlink:href="#ap"/><use transform="matrix(0.05,0,0,0.05,82,0)" xlink:href="#aL"/><use transform="matrix(0.05,0,0,0.05,87,0)" xlink:href="#aq"/><use transform="matrix(0.05,0,0,0.05,97,0)" xlink:href="#ak"/><use transform="matrix(0.05,0,0,0.05,107,0)" xlink:href="#al"/><use transform="matrix(0.05,0,0,0.05,117,0)" xlink:href="#am"/><use transform="matrix(0.05,0,0,0.05,127,0)" xlink:href="#an"/><use transform="matrix(0.05,0,0,0.05,137,0)" xlink:href="#al"/><use transform="matrix(0.05,0,0,0.05,147,0)" xlink:href="#ao"/><use transform="matrix(0.05,0,0,0.05,156,0)" xlink:href="#ar"/><use transform="matrix(0.05,0,0,0.05,166,0)" xlink:href="#as"/><use transform="matrix(0.05,0,0,0.05,169.95,0)" xlink:href="#at"/><use transform="matrix(0.05,0,0,0.05,179.95,0)" xlink:href="#aE"/></g><path fill="#333" d="M101-234c-31-9-42 10-38 44h38v23H63V0H32v-167H5v-23h27c-7-52 17-82 69-68v24" id="aQ"/><g id="B"><use transform="matrix(0.05,0,0,0.05,0,0)" xlink:href="#aQ"/><use transform="matrix(0.05,0,0,0.05,5,0)" xlink:href="#an"/><use transform="matrix(0.05,0,0,0.05,15,0)" xlink:href="#ay"/><use transform="matrix(0.05,0,0,0.05,29.950000000000003,0)" xlink:href="#as"/><use transform="matrix(0.05,0,0,0.05,33.900000000000006,0)" xlink:href="#aP"/><use transform="matrix(0.05,0,0,0.05,37.85000000000001,0)" xlink:href="#az"/><use transform="matrix(0.05,0,0,0.05,46.85000000000001,0)" xlink:href="#ar"/><use transform="matrix(0.05,0,0,0.05,56.85,0)" xlink:href="#as"/><use transform="matrix(0.05,0,0,0.05,60.80000000000001,0)" xlink:href="#at"/></g><g id="C"><use transform="matrix(0.05,0,0,0.05,0,0)" xlink:href="#aN"/><use transform="matrix(0.05,0,0,0.05,12.950000000000001,0)" xlink:href="#an"/><use transform="matrix(0.05,0,0,0.05,22.950000000000003,0)" xlink:href="#aO"/><use transform="matrix(0.05,0,0,0.05,31.950000000000003,0)" xlink:href="#az"/><use transform="matrix(0.05,0,0,0.05,40.95,0)" xlink:href="#aJ"/><use transform="matrix(0.05,0,0,0.05,51.900000000000006,0)" xlink:href="#an"/><use transform="matrix(0.05,0,0,0.05,61.900000000000006,0)" xlink:href="#ay"/><use transform="matrix(0.05,0,0,0.05,76.85000000000001,0)" xlink:href="#as"/><use transform="matrix(0.05,0,0,0.05,80.80000000000001,0)" xlink:href="#aP"/><use transform="matrix(0.05,0,0,0.05,84.75000000000001,0)" xlink:href="#as"/><use transform="matrix(0.05,0,0,0.05,88.70000000000002,0)" xlink:href="#ak"/><use transform="matrix(0.05,0,0,0.05,98.70000000000002,0)" xlink:href="#ap"/><use transform="matrix(0.05,0,0,0.05,107.7,0)" xlink:href="#aL"/><use transform="matrix(0.05,0,0,0.05,112.7,0)" xlink:href="#aQ"/><use transform="matrix(0.05,0,0,0.05,117.7,0)" xlink:href="#an"/><use transform="matrix(0.05,0,0,0.05,127.7,0)" xlink:href="#ay"/><use transform="matrix(0.05,0,0,0.05,142.65,0)" xlink:href="#as"/><use transform="matrix(0.05,0,0,0.05,146.6,0)" xlink:href="#aP"/><use transform="matrix(0.05,0,0,0.05,150.54999999999998,0)" xlink:href="#az"/><use transform="matrix(0.05,0,0,0.05,159.54999999999998,0)" xlink:href="#aE"/></g><g id="D"><use transform="matrix(0.05,0,0,0.05,0,0)" xlink:href="#aM"/><use transform="matrix(0.05,0,0,0.05,12,0)" xlink:href="#as"/><use transform="matrix(0.05,0,0,0.05,15.949999999999998,0)" xlink:href="#al"/><use transform="matrix(0.05,0,0,0.05,25.950000000000003,0)" xlink:href="#aq"/><use transform="matrix(0.05,0,0,0.05,35.95,0)" xlink:href="#at"/><use transform="matrix(0.05,0,0,0.05,45.95,0)" xlink:href="#aC"/><use transform="matrix(0.05,0,0,0.05,55.95,0)" xlink:href="#ay"/><use transform="matrix(0.05,0,0,0.05,70.9,0)" xlink:href="#ap"/></g><g id="E"><use transform="matrix(0.05,0,0,0.05,0,0)" xlink:href="#ao"/><use transform="matrix(0.05,0,0,0.05,9,0)" xlink:href="#as"/><use transform="matrix(0.05,0,0,0.05,12.949999999999998,0)" xlink:href="#al"/><use transform="matrix(0.05,0,0,0.05,22.95,0)" xlink:href="#aq"/><use transform="matrix(0.05,0,0,0.05,32.95,0)" xlink:href="#at"/><use transform="matrix(0.05,0,0,0.05,42.95,0)" xlink:href="#aC"/><use transform="matrix(0.05,0,0,0.05,52.95,0)" xlink:href="#ay"/><use transform="matrix(0.05,0,0,0.05,67.9,0)" xlink:href="#ar"/><use transform="matrix(0.05,0,0,0.05,77.9,0)" xlink:href="#as"/><use transform="matrix(0.05,0,0,0.05,81.85000000000001,0)" xlink:href="#at"/></g><g id="F"><use transform="matrix(0.05,0,0,0.05,0,0)" xlink:href="#ao"/><use transform="matrix(0.05,0,0,0.05,9,0)" xlink:href="#as"/><use transform="matrix(0.05,0,0,0.05,12.949999999999998,0)" xlink:href="#al"/><use transform="matrix(0.05,0,0,0.05,22.95,0)" xlink:href="#aq"/><use transform="matrix(0.05,0,0,0.05,32.95,0)" xlink:href="#at"/><use transform="matrix(0.05,0,0,0.05,42.95,0)" xlink:href="#aC"/><use transform="matrix(0.05,0,0,0.05,52.95,0)" xlink:href="#ay"/></g><g id="G"><use transform="matrix(0.05,0,0,0.05,0,0)" xlink:href="#aN"/><use transform="matrix(0.05,0,0,0.05,12.950000000000001,0)" xlink:href="#an"/><use transform="matrix(0.05,0,0,0.05,22.950000000000003,0)" xlink:href="#aO"/><use transform="matrix(0.05,0,0,0.05,31.950000000000003,0)" xlink:href="#az"/><use transform="matrix(0.05,0,0,0.05,40.95,0)" xlink:href="#aJ"/><use transform="matrix(0.05,0,0,0.05,51.900000000000006,0)" xlink:href="#an"/><use transform="matrix(0.05,0,0,0.05,61.900000000000006,0)" xlink:href="#ay"/><use transform="matrix(0.05,0,0,0.05,76.85000000000001,0)" xlink:href="#as"/><use transform="matrix(0.05,0,0,0.05,80.80000000000001,0)" xlink:href="#aP"/><use transform="matrix(0.05,0,0,0.05,84.75000000000001,0)" xlink:href="#aP"/><use transform="matrix(0.05,0,0,0.05,88.70000000000002,0)" xlink:href="#as"/><use transform="matrix(0.05,0,0,0.05,92.65000000000002,0)" xlink:href="#ak"/><use transform="matrix(0.05,0,0,0.05,102.65000000000003,0)" xlink:href="#ap"/></g><g id="H"><use transform="matrix(0.05,0,0,0.05,0,0)" xlink:href="#aQ"/><use transform="matrix(0.05,0,0,0.05,5,0)" xlink:href="#an"/><use transform="matrix(0.05,0,0,0.05,15,0)" xlink:href="#ay"/><use transform="matrix(0.05,0,0,0.05,29.950000000000003,0)" xlink:href="#as"/><use transform="matrix(0.05,0,0,0.05,33.900000000000006,0)" xlink:href="#aP"/><use transform="matrix(0.05,0,0,0.05,37.85000000000001,0)" xlink:href="#az"/></g><g id="I"><use transform="matrix(0.05,0,0,0.05,0,0)" xlink:href="#ax"/><use transform="matrix(0.05,0,0,0.05,5.95,0)" xlink:href="#ak"/><use transform="matrix(0.05,0,0,0.05,15.949999999999998,0)" xlink:href="#ap"/><use transform="matrix(0.05,0,0,0.05,24.95,0)" xlink:href="#au"/><use transform="matrix(0.05,0,0,0.05,29.950000000000003,0)" xlink:href="#ax"/></g><g id="J"><use transform="matrix(0.05,0,0,0.05,0,0)" xlink:href="#ap"/><use transform="matrix(0.05,0,0,0.05,9,0)" xlink:href="#aB"/><use transform="matrix(0.05,0,0,0.05,19,0)" xlink:href="#am"/><use transform="matrix(0.05,0,0,0.05,29,0)" xlink:href="#aQ"/><use transform="matrix(0.05,0,0,0.05,34,0)" xlink:href="#an"/><use transform="matrix(0.05,0,0,0.05,44,0)" xlink:href="#ay"/><use transform="matrix(0.05,0,0,0.05,58.95,0)" xlink:href="#as"/><use transform="matrix(0.05,0,0,0.05,62.900000000000006,0)" xlink:href="#aP"/><use transform="matrix(0.05,0,0,0.05,66.85000000000001,0)" xlink:href="#az"/></g><path fill="#333" d="M232-93c-1 65-40 97-104 97C67 4 28-28 28-90v-158h33c8 89-33 224 67 224 102 0 64-133 71-224h33v155" id="aR"/><g id="K"><use transform="matrix(0.05,0,0,0.05,0,0)" xlink:href="#aR"/><use transform="matrix(0.05,0,0,0.05,12.950000000000001,0)" xlink:href="#al"/><use transform="matrix(0.05,0,0,0.05,22.950000000000003,0)" xlink:href="#as"/><use transform="matrix(0.05,0,0,0.05,26.900000000000002,0)" xlink:href="#aH"/><use transform="matrix(0.05,0,0,0.05,36.900000000000006,0)" xlink:href="#ax"/><use transform="matrix(0.05,0,0,0.05,42.85000000000001,0)" xlink:href="#aC"/><use transform="matrix(0.05,0,0,0.05,52.85,0)" xlink:href="#au"/><use transform="matrix(0.05,0,0,0.05,57.85,0)" xlink:href="#ap"/></g><g id="L"><use transform="matrix(0.05,0,0,0.05,0,0)" xlink:href="#av"/><use transform="matrix(0.05,0,0,0.05,5.95,0)" xlink:href="#aJ"/><use transform="matrix(0.05,0,0,0.05,16.900000000000002,0)" xlink:href="#aC"/><use transform="matrix(0.05,0,0,0.05,26.900000000000002,0)" xlink:href="#ax"/><use transform="matrix(0.05,0,0,0.05,32.85,0)" xlink:href="#as"/><use transform="matrix(0.05,0,0,0.05,36.800000000000004,0)" xlink:href="#ak"/><use transform="matrix(0.05,0,0,0.05,46.800000000000004,0)" xlink:href="#aq"/><use transform="matrix(0.05,0,0,0.05,56.800000000000004,0)" xlink:href="#al"/></g><g id="M"><use transform="matrix(0.05,0,0,0.05,0,0)" xlink:href="#ao"/><use transform="matrix(0.05,0,0,0.05,9,0)" xlink:href="#ak"/><use transform="matrix(0.05,0,0,0.05,19,0)" xlink:href="#az"/></g><g id="N"><use transform="matrix(0.05,0,0,0.05,0,0)" xlink:href="#aj"/><use transform="matrix(0.05,0,0,0.05,14,0)" xlink:href="#ak"/><use transform="matrix(0.05,0,0,0.05,24,0)" xlink:href="#al"/><use transform="matrix(0.05,0,0,0.05,34,0)" xlink:href="#am"/><use transform="matrix(0.05,0,0,0.05,44,0)" xlink:href="#an"/><use transform="matrix(0.05,0,0,0.05,54,0)" xlink:href="#al"/><use transform="matrix(0.05,0,0,0.05,64,0)" xlink:href="#ao"/><use transform="matrix(0.05,0,0,0.05,73,0)" xlink:href="#ap"/><use transform="matrix(0.05,0,0,0.05,82,0)" xlink:href="#aL"/><use transform="matrix(0.05,0,0,0.05,87,0)" xlink:href="#aq"/><use transform="matrix(0.05,0,0,0.05,97,0)" xlink:href="#ak"/><use transform="matrix(0.05,0,0,0.05,107,0)" xlink:href="#al"/><use transform="matrix(0.05,0,0,0.05,117,0)" xlink:href="#am"/><use transform="matrix(0.05,0,0,0.05,127,0)" xlink:href="#an"/><use transform="matrix(0.05,0,0,0.05,137,0)" xlink:href="#al"/><use transform="matrix(0.05,0,0,0.05,147,0)" xlink:href="#ao"/><use transform="matrix(0.05,0,0,0.05,156,0)" xlink:href="#ar"/><use transform="matrix(0.05,0,0,0.05,166,0)" xlink:href="#as"/><use transform="matrix(0.05,0,0,0.05,169.95,0)" xlink:href="#at"/><use transform="matrix(0.05,0,0,0.05,179.95,0)" xlink:href="#aE"/></g><g id="O"><use transform="matrix(0.05,0,0,0.05,0,0)" xlink:href="#aB"/><use transform="matrix(0.05,0,0,0.05,10,0)" xlink:href="#al"/><use transform="matrix(0.05,0,0,0.05,20,0)" xlink:href="#as"/><use transform="matrix(0.05,0,0,0.05,23.95,0)" xlink:href="#aH"/><use transform="matrix(0.05,0,0,0.05,33.95,0)" xlink:href="#ax"/><use transform="matrix(0.05,0,0,0.05,39.900000000000006,0)" xlink:href="#aC"/><use transform="matrix(0.05,0,0,0.05,49.900000000000006,0)" xlink:href="#au"/><use transform="matrix(0.05,0,0,0.05,54.900000000000006,0)" xlink:href="#ar"/><use transform="matrix(0.05,0,0,0.05,64.9,0)" xlink:href="#as"/><use transform="matrix(0.05,0,0,0.05,68.85000000000001,0)" xlink:href="#at"/></g><g id="P"><use transform="matrix(0.05,0,0,0.05,0,0)" xlink:href="#aB"/><use transform="matrix(0.05,0,0,0.05,10,0)" xlink:href="#al"/><use transform="matrix(0.05,0,0,0.05,20,0)" xlink:href="#as"/><use transform="matrix(0.05,0,0,0.05,23.95,0)" xlink:href="#aH"/><use transform="matrix(0.05,0,0,0.05,33.95,0)" xlink:href="#ax"/><use transform="matrix(0.05,0,0,0.05,39.900000000000006,0)" xlink:href="#aC"/><use transform="matrix(0.05,0,0,0.05,49.900000000000006,0)" xlink:href="#au"/><use transform="matrix(0.05,0,0,0.05,54.900000000000006,0)" xlink:href="#ar"/><use transform="matrix(0.05,0,0,0.05,64.9,0)" xlink:href="#an"/><use transform="matrix(0.05,0,0,0.05,74.9,0)" xlink:href="#aD"/><use transform="matrix(0.05,0,0,0.05,83.9,0)" xlink:href="#aD"/><use transform="matrix(0.05,0,0,0.05,92.9,0)" xlink:href="#ak"/><use transform="matrix(0.05,0,0,0.05,102.9,0)" xlink:href="#ap"/><use transform="matrix(0.05,0,0,0.05,111.9,0)" xlink:href="#ap"/><use transform="matrix(0.05,0,0,0.05,120.9,0)" xlink:href="#as"/><use transform="matrix(0.05,0,0,0.05,124.85000000000001,0)" xlink:href="#aC"/><use transform="matrix(0.05,0,0,0.05,134.85000000000002,0)" xlink:href="#al"/></g><g id="Q"><use transform="matrix(0.05,0,0,0.05,0,0)" xlink:href="#ap"/><use transform="matrix(0.05,0,0,0.05,9,0)" xlink:href="#au"/><use transform="matrix(0.05,0,0,0.05,14,0)" xlink:href="#ax"/></g><path fill="#333" d="M33-154v-36h34v36H33zM33 0v-36h34V0H33" id="aS"/><g id="R"><use transform="matrix(0.05,0,0,0.05,0,0)" xlink:href="#av"/><use transform="matrix(0.05,0,0,0.05,5.95,0)" xlink:href="#aR"/><use transform="matrix(0.05,0,0,0.05,18.900000000000002,0)" xlink:href="#al"/><use transform="matrix(0.05,0,0,0.05,28.900000000000002,0)" xlink:href="#as"/><use transform="matrix(0.05,0,0,0.05,32.85,0)" xlink:href="#aw"/><use transform="matrix(0.05,0,0,0.05,44.85,0)" xlink:href="#ax"/><use transform="matrix(0.05,0,0,0.05,50.800000000000004,0)" xlink:href="#aC"/><use transform="matrix(0.05,0,0,0.05,60.800000000000004,0)" xlink:href="#au"/><use transform="matrix(0.05,0,0,0.05,65.80000000000001,0)" xlink:href="#aS"/></g><g id="S"><use transform="matrix(0.05,0,0,0.05,0,0)" xlink:href="#ak"/><use transform="matrix(0.05,0,0,0.05,10,0)" xlink:href="#al"/><use transform="matrix(0.05,0,0,0.05,20,0)" xlink:href="#au"/><use transform="matrix(0.05,0,0,0.05,25,0)" xlink:href="#ax"/><use transform="matrix(0.05,0,0,0.05,30.950000000000003,0)" xlink:href="#az"/></g><g id="T"><use transform="matrix(0.05,0,0,0.05,0,0)" xlink:href="#as"/><use transform="matrix(0.05,0,0,0.05,3.95,0)" xlink:href="#at"/><use transform="matrix(0.05,0,0,0.05,13.949999999999998,0)" xlink:href="#aE"/></g><g id="U"><use transform="matrix(0.05,0,0,0.05,0,0)" xlink:href="#aB"/><use transform="matrix(0.05,0,0,0.05,10,0)" xlink:href="#al"/><use transform="matrix(0.05,0,0,0.05,20,0)" xlink:href="#as"/><use transform="matrix(0.05,0,0,0.05,23.95,0)" xlink:href="#aH"/><use transform="matrix(0.05,0,0,0.05,33.95,0)" xlink:href="#ax"/><use transform="matrix(0.05,0,0,0.05,39.900000000000006,0)" xlink:href="#aC"/><use transform="matrix(0.05,0,0,0.05,49.900000000000006,0)" xlink:href="#au"/><use transform="matrix(0.05,0,0,0.05,54.900000000000006,0)" xlink:href="#ar"/><use transform="matrix(0.05,0,0,0.05,64.9,0)" xlink:href="#al"/><use transform="matrix(0.05,0,0,0.05,74.9,0)" xlink:href="#an"/><use transform="matrix(0.05,0,0,0.05,84.9,0)" xlink:href="#ay"/><use transform="matrix(0.05,0,0,0.05,99.85000000000001,0)" xlink:href="#ak"/></g><g id="V"><use transform="matrix(0.05,0,0,0.05,0,0)" xlink:href="#ax"/><use transform="matrix(0.05,0,0,0.05,5.95,0)" xlink:href="#ak"/><use transform="matrix(0.05,0,0,0.05,15.949999999999998,0)" xlink:href="#ap"/><use transform="matrix(0.05,0,0,0.05,24.95,0)" xlink:href="#au"/><use transform="matrix(0.05,0,0,0.05,29.950000000000003,0)" xlink:href="#ax"/></g><g id="W"><use transform="matrix(0.05,0,0,0.05,0,0)" xlink:href="#av"/><use transform="matrix(0.05,0,0,0.05,5.95,0)" xlink:href="#aR"/><use transform="matrix(0.05,0,0,0.05,18.900000000000002,0)" xlink:href="#al"/><use transform="matrix(0.05,0,0,0.05,28.900000000000002,0)" xlink:href="#as"/><use transform="matrix(0.05,0,0,0.05,32.85,0)" xlink:href="#aw"/><use transform="matrix(0.05,0,0,0.05,44.85,0)" xlink:href="#ax"/><use transform="matrix(0.05,0,0,0.05,50.800000000000004,0)" xlink:href="#aC"/><use transform="matrix(0.05,0,0,0.05,60.800000000000004,0)" xlink:href="#au"/><use transform="matrix(0.05,0,0,0.05,65.80000000000001,0)" xlink:href="#aS"/></g><g id="X"><use transform="matrix(0.05,0,0,0.05,0,0)" xlink:href="#ak"/><use transform="matrix(0.05,0,0,0.05,10,0)" xlink:href="#al"/><use transform="matrix(0.05,0,0,0.05,20,0)" xlink:href="#au"/><use transform="matrix(0.05,0,0,0.05,25,0)" xlink:href="#ax"/><use transform="matrix(0.05,0,0,0.05,30.950000000000003,0)" xlink:href="#az"/></g><g id="Y"><use transform="matrix(0.05,0,0,0.05,0,0)" xlink:href="#al"/><use transform="matrix(0.05,0,0,0.05,10,0)" xlink:href="#an"/><use transform="matrix(0.05,0,0,0.05,20,0)" xlink:href="#ay"/><use transform="matrix(0.05,0,0,0.05,34.95,0)" xlink:href="#ak"/><use transform="matrix(0.05,0,0,0.05,44.95,0)" xlink:href="#aE"/></g><g id="Z"><use transform="matrix(0.05,0,0,0.05,0,0)" xlink:href="#aj"/><use transform="matrix(0.05,0,0,0.05,14,0)" xlink:href="#ak"/><use transform="matrix(0.05,0,0,0.05,24,0)" xlink:href="#al"/><use transform="matrix(0.05,0,0,0.05,34,0)" xlink:href="#am"/><use transform="matrix(0.05,0,0,0.05,44,0)" xlink:href="#an"/><use transform="matrix(0.05,0,0,0.05,54,0)" xlink:href="#al"/><use transform="matrix(0.05,0,0,0.05,64,0)" xlink:href="#ao"/><use transform="matrix(0.05,0,0,0.05,73,0)" xlink:href="#ap"/><use transform="matrix(0.05,0,0,0.05,82,0)" xlink:href="#ar"/><use transform="matrix(0.05,0,0,0.05,92,0)" xlink:href="#aw"/><use transform="matrix(0.05,0,0,0.05,104,0)" xlink:href="#at"/><use transform="matrix(0.05,0,0,0.05,114,0)" xlink:href="#am"/><use transform="matrix(0.05,0,0,0.05,124,0)" xlink:href="#ap"/></g><g id="aa"><use transform="matrix(0.05,0,0,0.05,0,0)" xlink:href="#aH"/><use transform="matrix(0.05,0,0,0.05,10,0)" xlink:href="#at"/><use transform="matrix(0.05,0,0,0.05,20,0)" xlink:href="#am"/><use transform="matrix(0.05,0,0,0.05,30,0)" xlink:href="#ar"/><use transform="matrix(0.05,0,0,0.05,40,0)" xlink:href="#as"/><use transform="matrix(0.05,0,0,0.05,43.95,0)" xlink:href="#at"/></g><g id="ab"><use transform="matrix(0.05,0,0,0.05,0,0)" xlink:href="#aw"/><use transform="matrix(0.05,0,0,0.05,12,0)" xlink:href="#at"/><use transform="matrix(0.05,0,0,0.05,22,0)" xlink:href="#am"/><use transform="matrix(0.05,0,0,0.05,32,0)" xlink:href="#ap"/><use transform="matrix(0.05,0,0,0.05,41,0)" xlink:href="#aL"/><use transform="matrix(0.05,0,0,0.05,46,0)" xlink:href="#aH"/><use transform="matrix(0.05,0,0,0.05,56,0)" xlink:href="#at"/><use transform="matrix(0.05,0,0,0.05,66,0)" xlink:href="#am"/><use transform="matrix(0.05,0,0,0.05,76,0)" xlink:href="#ar"/><use transform="matrix(0.05,0,0,0.05,86,0)" xlink:href="#as"/><use transform="matrix(0.05,0,0,0.05,89.95,0)" xlink:href="#at"/><use transform="matrix(0.05,0,0,0.05,99.95,0)" xlink:href="#aE"/></g><g id="ac"><use transform="matrix(0.05,0,0,0.05,0,0)" xlink:href="#aw"/><use transform="matrix(0.05,0,0,0.05,12,0)" xlink:href="#at"/><use transform="matrix(0.05,0,0,0.05,22,0)" xlink:href="#am"/><use transform="matrix(0.05,0,0,0.05,32,0)" xlink:href="#ap"/></g><g id="ad"><use transform="matrix(0.05,0,0,0.05,0,0)" xlink:href="#aH"/><use transform="matrix(0.05,0,0,0.05,10,0)" xlink:href="#at"/><use transform="matrix(0.05,0,0,0.05,20,0)" xlink:href="#am"/><use transform="matrix(0.05,0,0,0.05,30,0)" xlink:href="#ar"/><use transform="matrix(0.05,0,0,0.05,40,0)" xlink:href="#an"/><use transform="matrix(0.05,0,0,0.05,50,0)" xlink:href="#aD"/><use transform="matrix(0.05,0,0,0.05,59,0)" xlink:href="#aD"/><use transform="matrix(0.05,0,0,0.05,68,0)" xlink:href="#ak"/><use transform="matrix(0.05,0,0,0.05,78,0)" xlink:href="#ap"/><use transform="matrix(0.05,0,0,0.05,87,0)" xlink:href="#ap"/><use transform="matrix(0.05,0,0,0.05,96,0)" xlink:href="#as"/><use transform="matrix(0.05,0,0,0.05,99.95,0)" xlink:href="#aC"/><use transform="matrix(0.05,0,0,0.05,109.95,0)" xlink:href="#al"/></g><path fill="#333" d="M30 0v-248h187v28H63v79h144v27H63v87h162V0H30" id="aT"/><g id="ae"><use transform="matrix(0.05,0,0,0.05,0,0)" xlink:href="#aj"/><use transform="matrix(0.05,0,0,0.05,14,0)" xlink:href="#ak"/><use transform="matrix(0.05,0,0,0.05,24,0)" xlink:href="#al"/><use transform="matrix(0.05,0,0,0.05,34,0)" xlink:href="#am"/><use transform="matrix(0.05,0,0,0.05,44,0)" xlink:href="#an"/><use transform="matrix(0.05,0,0,0.05,54,0)" xlink:href="#al"/><use transform="matrix(0.05,0,0,0.05,64,0)" xlink:href="#ao"/><use transform="matrix(0.05,0,0,0.05,73,0)" xlink:href="#ap"/><use transform="matrix(0.05,0,0,0.05,82,0)" xlink:href="#ar"/><use transform="matrix(0.05,0,0,0.05,92,0)" xlink:href="#aT"/><use transform="matrix(0.05,0,0,0.05,104,0)" xlink:href="#aD"/><use transform="matrix(0.05,0,0,0.05,113,0)" xlink:href="#ap"/></g><g id="af"><use transform="matrix(0.05,0,0,0.05,0,0)" xlink:href="#ak"/><use transform="matrix(0.05,0,0,0.05,10,0)" xlink:href="#aD"/><use transform="matrix(0.05,0,0,0.05,19,0)" xlink:href="#ar"/><use transform="matrix(0.05,0,0,0.05,29,0)" xlink:href="#as"/><use transform="matrix(0.05,0,0,0.05,32.95,0)" xlink:href="#at"/></g><g id="ag"><use transform="matrix(0.05,0,0,0.05,0,0)" xlink:href="#aT"/><use transform="matrix(0.05,0,0,0.05,12,0)" xlink:href="#aD"/><use transform="matrix(0.05,0,0,0.05,21,0)" xlink:href="#ap"/><use transform="matrix(0.05,0,0,0.05,30,0)" xlink:href="#aL"/><use transform="matrix(0.05,0,0,0.05,35,0)" xlink:href="#ak"/><use transform="matrix(0.05,0,0,0.05,45,0)" xlink:href="#aD"/><use transform="matrix(0.05,0,0,0.05,54,0)" xlink:href="#ar"/><use transform="matrix(0.05,0,0,0.05,64,0)" xlink:href="#as"/><use transform="matrix(0.05,0,0,0.05,67.95,0)" xlink:href="#at"/><use transform="matrix(0.05,0,0,0.05,77.95,0)" xlink:href="#aE"/></g><g id="ah"><use transform="matrix(0.05,0,0,0.05,0,0)" xlink:href="#aT"/><use transform="matrix(0.05,0,0,0.05,12,0)" xlink:href="#aD"/><use transform="matrix(0.05,0,0,0.05,21,0)" xlink:href="#ap"/></g><g id="ai"><use transform="matrix(0.05,0,0,0.05,0,0)" xlink:href="#ak"/><use transform="matrix(0.05,0,0,0.05,10,0)" xlink:href="#aD"/><use transform="matrix(0.05,0,0,0.05,19,0)" xlink:href="#ar"/><use transform="matrix(0.05,0,0,0.05,29,0)" xlink:href="#al"/><use transform="matrix(0.05,0,0,0.05,39,0)" xlink:href="#aB"/><use transform="matrix(0.05,0,0,0.05,49,0)" xlink:href="#ay"/><use transform="matrix(0.05,0,0,0.05,63.95,0)" xlink:href="#am"/><use transform="matrix(0.05,0,0,0.05,73.95,0)" xlink:href="#ak"/><use transform="matrix(0.05,0,0,0.05,83.95,0)" xlink:href="#ax"/></g></defs></g></svg>